<?xml version="1.0" encoding="UTF-8" standalone="no"?>
<!-- Uploaded to: SVG Repo, www.svgrepo.com, Generator: SVG Repo Mixer Tools -->

<svg
   fill="#000000"
   width="662.49994"
   height="574.14307"
   viewBox="0 0 19.874998 17.224292"
   version="1.1"
   id="svg2"
   xmlns="http://www.w3.org/2000/svg"
   xmlns:svg="http://www.w3.org/2000/svg">
  <defs
     id="defs2" />
  <g
     id="Inbox_In"
     data-name="Inbox In"
     transform="translate(-2.5929682,-2.8063941)">
    <g
       id="g2">
      <g
         id="g4"
         transform="translate(0.53096827,0.08168743)">
        <g
           id="g5">
          <rect
             style="fill:#d8d8d8;fill-opacity:1;stroke:#d8d8d8;stroke-width:1.15007;stroke-linejoin:round;stroke-dasharray:none;stroke-opacity:1"
             id="rect4"
             width="16.911619"
             height="15.973521"
             x="3.5539246"
             y="3.2997417"
             ry="0.98668474"
             rx="0.79326409" />
          <path
             style="fill:#c7b9ce;fill-opacity:1;stroke:none;stroke-width:1.02018;stroke-linejoin:round;stroke-dasharray:none;stroke-opacity:1"
             d="m 2.8182162,18.971905 v -6.780057 h 5.2892607 l 1.9723651,3.416236 h 3.725333 l 2.095667,-3.629801 h 5.276623 v 6.993622 z"
             id="path4" />
          <path
             d="m 11.5,9.361 v -4.83 a 0.5,0.5 0 0 1 1,0 v 4.82 l 1.27,-1.27 a 0.524,0.524 0 0 1 0.71,0 0.513,0.513 0 0 1 0,0.71 l -2.13,2.12 a 0.492,0.492 0 0 1 -0.7,0 L 9.53,8.791 a 0.5,0.5 0 0 1 0,-0.71 0.511,0.511 0 0 1 0.7,0 z"
             id="path1"
             style="fill:#9f8cb0;fill-opacity:1" />
          <path
             d="M 20.488,19.949 H 3.512 A 1.451,1.451 0 0 1 2.062,18.5 v -5.639 a 1.451,1.451 0 0 1 1.45,-1.449 h 4.1 a 1.444,1.444 0 0 1 1.3,0.8 l 1.373,2.726 a 0.449,0.449 0 0 0 0.4,0.247 h 2.629 a 0.448,0.448 0 0 0 0.4,-0.248 l 1.373,-2.724 a 1.442,1.442 0 0 1 1.3,-0.8 h 4.1 a 1.451,1.451 0 0 1 1.45,1.449 V 18.5 a 1.451,1.451 0 0 1 -1.449,1.449 z M 3.512,12.412 a 0.45,0.45 0 0 0 -0.45,0.449 V 18.5 a 0.45,0.45 0 0 0 0.45,0.449 h 16.976 a 0.45,0.45 0 0 0 0.45,-0.449 v -5.639 a 0.45,0.45 0 0 0 -0.45,-0.449 h -4.1 a 0.449,0.449 0 0 0 -0.4,0.247 l -1.378,2.725 a 1.445,1.445 0 0 1 -1.295,0.8 h -2.629 a 1.442,1.442 0 0 1 -1.295,-0.8 L 8.018,12.659 a 0.449,0.449 0 0 0 -0.4,-0.247 z"
             id="path2"
             style="fill:#9f8cb0;fill-opacity:1" />
        </g>
      </g>
    </g>
  </g>
</svg>
